<svg width="92" height="51" viewBox="0 0 92 51" fill="none" xmlns="http://www.w3.org/2000/svg">
<path d="M39.9688 27.8438V50H0.03125V38.8125H5.03125V11.2812H0.03125V0.28125H26V11.2812H21.0312V38.8125H29.0312L32.0312 27.8438H39.9688ZM70.875 39V50H44.9062V39H49.9062V11.2812H44.9062V0.28125H70.875V11.2812H65.9062V39H70.875ZM82.4375 50.9062C80.0208 50.9062 77.9583 50.1771 76.25 48.7188C74.625 47.3646 73.8125 45.4688 73.8125 43.0312C73.8125 40.6354 74.625 38.7812 76.25 37.4688C77.8958 36.0521 79.9583 35.3438 82.4375 35.3438C85.125 35.3438 87.3021 36.0521 88.9688 37.4688C90.6354 38.8854 91.4688 40.7396 91.4688 43.0312C91.4688 45.3646 90.6146 47.2604 88.9062 48.7188C87.1771 50.1354 85.0521 50.8438 82.5312 50.8438L82.4375 50.9062Z" fill="black"/>
</svg>
